# xmcd
#
# Track frame offsets:
#	150
#	21805
#	46604
#	67522
#	81955
#	104656
#	123691
#	134554
#	155580
#	170303
#	197821
#
# Disc length: 2941 seconds
#
# Revision: 1
# Processed by: cddbd v1.5.1PL0 Copyright (c) Steve Scherf et al.
# Submitted via: EasyCDDAExtractor 6.5.0.1
#
DISCID=900b7b0b
DTITLE=Chris Rea - Dancing down the stony road - 1
DYEAR=1900
DGENRE=
TTITLE0=Easy Rider
TTITLE1=Stony Road
TTITLE2=Dancing the blues away
TTITLE3=Catfish Girl
TTITLE4=Burning Feet
TTITLE5=Slow Dance
TTITLE6=Segway
TTITLE7=Mississippi
TTITLE8=So Lonely
TTITLE9=Heading for the City
TTITLE10=Looking for the summer
EXTD=
EXTT0=
EXTT1=
EXTT2=
EXTT3=
EXTT4=
EXTT5=
EXTT6=
EXTT7=
EXTT8=
EXTT9=
EXTT10=
PLAYORDER=
